<mxfile host="app.diagrams.net" agent="Mozilla/5.0 (Windows NT 10.0; Win64; x64; rv:132.0) Gecko/20100101 Firefox/132.0" version="24.8.6">
  <diagram name="Seite-1" id="6TaHzG4l6vef9upLpuEr">
    <mxGraphModel dx="1431" dy="702" grid="1" gridSize="10" guides="1" tooltips="1" connect="1" arrows="1" fold="1" page="1" pageScale="1" pageWidth="1200" pageHeight="1169" math="0" shadow="0">
      <root>
        <mxCell id="0" />
        <mxCell id="1" parent="0" />
        <mxCell id="mw35fI-ThrpKBd6MLWW_-1" value="Startbildschirm" style="rounded=1;whiteSpace=wrap;html=1;fillColor=#d80073;fontColor=#ffffff;strokeColor=#A50040;" vertex="1" parent="1">
          <mxGeometry x="60" y="140" width="120" height="60" as="geometry" />
        </mxCell>
        <mxCell id="mw35fI-ThrpKBd6MLWW_-13" style="edgeStyle=orthogonalEdgeStyle;rounded=0;orthogonalLoop=1;jettySize=auto;html=1;" edge="1" parent="1" source="mw35fI-ThrpKBd6MLWW_-2" target="mw35fI-ThrpKBd6MLWW_-4">
          <mxGeometry relative="1" as="geometry" />
        </mxCell>
        <mxCell id="mw35fI-ThrpKBd6MLWW_-2" value="Wissenscheck" style="rounded=1;whiteSpace=wrap;html=1;fillColor=#d80073;fontColor=#ffffff;strokeColor=#A50040;" vertex="1" parent="1">
          <mxGeometry x="420" y="140" width="120" height="60" as="geometry" />
        </mxCell>
        <mxCell id="mw35fI-ThrpKBd6MLWW_-14" style="edgeStyle=orthogonalEdgeStyle;rounded=0;orthogonalLoop=1;jettySize=auto;html=1;" edge="1" parent="1" source="mw35fI-ThrpKBd6MLWW_-4" target="mw35fI-ThrpKBd6MLWW_-5">
          <mxGeometry relative="1" as="geometry" />
        </mxCell>
        <mxCell id="mw35fI-ThrpKBd6MLWW_-4" value="Vorauswahl" style="rounded=1;whiteSpace=wrap;html=1;fillColor=#d80073;fontColor=#ffffff;strokeColor=#A50040;" vertex="1" parent="1">
          <mxGeometry x="620" y="140" width="120" height="60" as="geometry" />
        </mxCell>
        <mxCell id="mw35fI-ThrpKBd6MLWW_-79" style="edgeStyle=orthogonalEdgeStyle;rounded=0;orthogonalLoop=1;jettySize=auto;html=1;entryX=1;entryY=0.5;entryDx=0;entryDy=0;" edge="1" parent="1" source="mw35fI-ThrpKBd6MLWW_-5" target="mw35fI-ThrpKBd6MLWW_-11">
          <mxGeometry relative="1" as="geometry">
            <Array as="points">
              <mxPoint x="1120" y="170" />
              <mxPoint x="1120" y="420" />
            </Array>
          </mxGeometry>
        </mxCell>
        <mxCell id="mw35fI-ThrpKBd6MLWW_-5" value="Prebuild" style="rounded=1;whiteSpace=wrap;html=1;fillColor=#d80073;fontColor=#ffffff;strokeColor=#A50040;" vertex="1" parent="1">
          <mxGeometry x="820" y="140" width="120" height="60" as="geometry" />
        </mxCell>
        <mxCell id="mw35fI-ThrpKBd6MLWW_-8" value="Kaufen" style="rounded=1;whiteSpace=wrap;html=1;fillColor=#d80073;fontColor=#ffffff;strokeColor=#A50040;" vertex="1" parent="1">
          <mxGeometry x="70" y="560" width="120" height="60" as="geometry" />
        </mxCell>
        <mxCell id="mw35fI-ThrpKBd6MLWW_-9" value="Speichern?" style="rounded=1;whiteSpace=wrap;html=1;fillColor=#d80073;fontColor=#ffffff;strokeColor=#A50040;" vertex="1" parent="1">
          <mxGeometry x="420" y="390" width="120" height="60" as="geometry" />
        </mxCell>
        <mxCell id="mw35fI-ThrpKBd6MLWW_-114" style="edgeStyle=orthogonalEdgeStyle;rounded=0;orthogonalLoop=1;jettySize=auto;html=1;" edge="1" parent="1" source="mw35fI-ThrpKBd6MLWW_-10" target="mw35fI-ThrpKBd6MLWW_-9">
          <mxGeometry relative="1" as="geometry" />
        </mxCell>
        <mxCell id="mw35fI-ThrpKBd6MLWW_-10" value="Anpassungen (erklÃ¤rungen dabei)" style="rounded=1;whiteSpace=wrap;html=1;fillColor=#d80073;fontColor=#ffffff;strokeColor=#A50040;" vertex="1" parent="1">
          <mxGeometry x="640" y="390" width="120" height="60" as="geometry" />
        </mxCell>
        <mxCell id="mw35fI-ThrpKBd6MLWW_-84" style="edgeStyle=orthogonalEdgeStyle;rounded=0;orthogonalLoop=1;jettySize=auto;html=1;" edge="1" parent="1" source="mw35fI-ThrpKBd6MLWW_-11" target="mw35fI-ThrpKBd6MLWW_-82">
          <mxGeometry relative="1" as="geometry" />
        </mxCell>
        <mxCell id="mw35fI-ThrpKBd6MLWW_-11" value="Prebuild" style="rounded=1;whiteSpace=wrap;html=1;fillColor=#d80073;fontColor=#ffffff;strokeColor=#A50040;" vertex="1" parent="1">
          <mxGeometry x="940" y="390" width="120" height="60" as="geometry" />
        </mxCell>
        <mxCell id="mw35fI-ThrpKBd6MLWW_-24" value="kein Wissen" style="whiteSpace=wrap;html=1;fillStyle=solid;fillColor=#000000;strokeColor=#FAFAFA;fontColor=#D9D9D9;" vertex="1" parent="1">
          <mxGeometry x="450" y="200" width="120" height="30" as="geometry" />
        </mxCell>
        <mxCell id="mw35fI-ThrpKBd6MLWW_-59" style="edgeStyle=orthogonalEdgeStyle;rounded=0;orthogonalLoop=1;jettySize=auto;html=1;entryX=0;entryY=0.5;entryDx=0;entryDy=0;fillColor=#d5e8d4;strokeColor=#82b366;" edge="1" parent="1" source="mw35fI-ThrpKBd6MLWW_-27" target="mw35fI-ThrpKBd6MLWW_-31">
          <mxGeometry relative="1" as="geometry" />
        </mxCell>
        <mxCell id="mw35fI-ThrpKBd6MLWW_-27" value="bischen" style="whiteSpace=wrap;html=1;fillStyle=solid;fillColor=#000000;strokeColor=#FFFFFF;fontColor=#FFFFFF;" vertex="1" parent="1">
          <mxGeometry x="450" y="230" width="120" height="30" as="geometry" />
        </mxCell>
        <mxCell id="mw35fI-ThrpKBd6MLWW_-28" value="Gaming PC" style="whiteSpace=wrap;html=1;fillStyle=solid;fillColor=#000000;strokeColor=#FFFFFF;fontColor=#FFFFFF;" vertex="1" parent="1">
          <mxGeometry x="640" y="200" width="120" height="30" as="geometry" />
        </mxCell>
        <mxCell id="mw35fI-ThrpKBd6MLWW_-130" style="edgeStyle=orthogonalEdgeStyle;rounded=0;orthogonalLoop=1;jettySize=auto;html=1;fillColor=#dae8fc;strokeColor=#6c8ebf;" edge="1" parent="1" source="mw35fI-ThrpKBd6MLWW_-30" target="mw35fI-ThrpKBd6MLWW_-10">
          <mxGeometry relative="1" as="geometry">
            <Array as="points">
              <mxPoint x="510" y="330" />
              <mxPoint x="700" y="330" />
            </Array>
          </mxGeometry>
        </mxCell>
        <mxCell id="mw35fI-ThrpKBd6MLWW_-30" value="Profi" style="whiteSpace=wrap;html=1;fillStyle=solid;fillColor=#000000;strokeColor=#FFFFFF;fontColor=#FFFFFF;" vertex="1" parent="1">
          <mxGeometry x="450" y="260" width="120" height="30" as="geometry" />
        </mxCell>
        <mxCell id="mw35fI-ThrpKBd6MLWW_-60" style="edgeStyle=orthogonalEdgeStyle;rounded=0;orthogonalLoop=1;jettySize=auto;html=1;fillColor=#d5e8d4;strokeColor=#82b366;" edge="1" parent="1" source="mw35fI-ThrpKBd6MLWW_-31">
          <mxGeometry relative="1" as="geometry">
            <mxPoint x="840.0000000000002" y="245" as="targetPoint" />
          </mxGeometry>
        </mxCell>
        <mxCell id="mw35fI-ThrpKBd6MLWW_-31" value="Office PC" style="whiteSpace=wrap;html=1;fillStyle=solid;fillColor=#000000;strokeColor=#FFFFFF;fontColor=#FFFFFF;" vertex="1" parent="1">
          <mxGeometry x="640" y="230" width="120" height="30" as="geometry" />
        </mxCell>
        <mxCell id="mw35fI-ThrpKBd6MLWW_-32" value="nicht sicher" style="whiteSpace=wrap;html=1;fillStyle=solid;fillColor=#000000;strokeColor=#FFFFFF;fontColor=#FFFFFF;" vertex="1" parent="1">
          <mxGeometry x="640" y="290" width="120" height="30" as="geometry" />
        </mxCell>
        <mxCell id="mw35fI-ThrpKBd6MLWW_-33" value="Workstation" style="whiteSpace=wrap;html=1;fillStyle=solid;fillColor=#000000;strokeColor=#FFFFFF;fontColor=#FFFFFF;" vertex="1" parent="1">
          <mxGeometry x="640" y="260" width="120" height="30" as="geometry" />
        </mxCell>
        <mxCell id="mw35fI-ThrpKBd6MLWW_-36" value="PC 1" style="whiteSpace=wrap;html=1;fillStyle=solid;fillColor=#000000;strokeColor=#FFFFFF;fontColor=#FFFFFF;" vertex="1" parent="1">
          <mxGeometry x="940" y="450" width="120" height="30" as="geometry" />
        </mxCell>
        <mxCell id="mw35fI-ThrpKBd6MLWW_-43" value="Komponente 1" style="whiteSpace=wrap;html=1;fillStyle=solid;fillColor=#000000;strokeColor=#FFFFFF;fontColor=#FFFFFF;" vertex="1" parent="1">
          <mxGeometry x="640" y="450" width="120" height="30" as="geometry" />
        </mxCell>
        <mxCell id="mw35fI-ThrpKBd6MLWW_-44" value="Produkt 1" style="whiteSpace=wrap;html=1;fillStyle=solid;fillColor=#000000;strokeColor=#FFFFFF;fontColor=#FFFFFF;" vertex="1" parent="1">
          <mxGeometry x="650" y="480" width="120" height="30" as="geometry" />
        </mxCell>
        <mxCell id="mw35fI-ThrpKBd6MLWW_-45" value="Produkt 2" style="whiteSpace=wrap;html=1;fillStyle=solid;fillColor=#000000;strokeColor=#FFFFFF;fontColor=#FFFFFF;" vertex="1" parent="1">
          <mxGeometry x="650" y="510" width="120" height="30" as="geometry" />
        </mxCell>
        <mxCell id="mw35fI-ThrpKBd6MLWW_-46" value="Komponente 2" style="whiteSpace=wrap;html=1;fillStyle=solid;fillColor=#000000;strokeColor=#FFFFFF;fontColor=#FFFFFF;" vertex="1" parent="1">
          <mxGeometry x="640" y="540" width="120" height="30" as="geometry" />
        </mxCell>
        <mxCell id="mw35fI-ThrpKBd6MLWW_-48" value="PC 2" style="whiteSpace=wrap;html=1;fillStyle=solid;fillColor=#000000;strokeColor=#FFFFFF;fontColor=#FFFFFF;" vertex="1" parent="1">
          <mxGeometry x="940" y="480" width="120" height="30" as="geometry" />
        </mxCell>
        <mxCell id="mw35fI-ThrpKBd6MLWW_-49" value="etc." style="whiteSpace=wrap;html=1;fillStyle=solid;fillColor=#000000;strokeColor=#FFFFFF;fontColor=#FFFFFF;" vertex="1" parent="1">
          <mxGeometry x="940" y="510" width="120" height="30" as="geometry" />
        </mxCell>
        <mxCell id="mw35fI-ThrpKBd6MLWW_-116" style="edgeStyle=orthogonalEdgeStyle;rounded=0;orthogonalLoop=1;jettySize=auto;html=1;" edge="1" parent="1" source="mw35fI-ThrpKBd6MLWW_-51" target="mw35fI-ThrpKBd6MLWW_-101">
          <mxGeometry relative="1" as="geometry" />
        </mxCell>
        <mxCell id="mw35fI-ThrpKBd6MLWW_-51" value="In App speichern" style="whiteSpace=wrap;html=1;fillStyle=solid;fillColor=#000000;strokeColor=#FFFFFF;fontColor=#FFFFFF;" vertex="1" parent="1">
          <mxGeometry x="420" y="450" width="120" height="30" as="geometry" />
        </mxCell>
        <mxCell id="mw35fI-ThrpKBd6MLWW_-53" value="Weiterleitung zu Online-Shops" style="whiteSpace=wrap;html=1;fillStyle=solid;fillColor=#000000;strokeColor=#FFFFFF;fontColor=#FFFFFF;" vertex="1" parent="1">
          <mxGeometry x="70" y="620" width="120" height="40" as="geometry" />
        </mxCell>
        <mxCell id="mw35fI-ThrpKBd6MLWW_-65" value="Bauanleitung" style="rounded=1;whiteSpace=wrap;html=1;fillColor=#d80073;fontColor=#ffffff;strokeColor=#A50040;" vertex="1" parent="1">
          <mxGeometry x="530" y="800" width="120" height="60" as="geometry" />
        </mxCell>
        <mxCell id="mw35fI-ThrpKBd6MLWW_-80" style="edgeStyle=orthogonalEdgeStyle;rounded=0;orthogonalLoop=1;jettySize=auto;html=1;entryX=1;entryY=0.5;entryDx=0;entryDy=0;" edge="1" parent="1" source="mw35fI-ThrpKBd6MLWW_-73" target="mw35fI-ThrpKBd6MLWW_-11">
          <mxGeometry relative="1" as="geometry">
            <Array as="points">
              <mxPoint x="1120" y="215" />
              <mxPoint x="1120" y="420" />
            </Array>
          </mxGeometry>
        </mxCell>
        <mxCell id="mw35fI-ThrpKBd6MLWW_-73" value="Ja" style="whiteSpace=wrap;html=1;fillStyle=solid;fillColor=#000000;strokeColor=#FFFFFF;fontColor=#FFFFFF;" vertex="1" parent="1">
          <mxGeometry x="840" y="200" width="120" height="30" as="geometry" />
        </mxCell>
        <mxCell id="mw35fI-ThrpKBd6MLWW_-78" style="edgeStyle=orthogonalEdgeStyle;rounded=0;orthogonalLoop=1;jettySize=auto;html=1;entryX=0.75;entryY=0;entryDx=0;entryDy=0;fillColor=#d5e8d4;strokeColor=#82b366;" edge="1" parent="1" source="mw35fI-ThrpKBd6MLWW_-74" target="mw35fI-ThrpKBd6MLWW_-10">
          <mxGeometry relative="1" as="geometry">
            <Array as="points">
              <mxPoint x="900" y="360" />
              <mxPoint x="730" y="360" />
            </Array>
          </mxGeometry>
        </mxCell>
        <mxCell id="mw35fI-ThrpKBd6MLWW_-74" value="Nein" style="whiteSpace=wrap;html=1;fillStyle=solid;fillColor=#000000;strokeColor=#FFFFFF;fontColor=#FFFFFF;" vertex="1" parent="1">
          <mxGeometry x="840" y="230" width="120" height="30" as="geometry" />
        </mxCell>
        <mxCell id="mw35fI-ThrpKBd6MLWW_-85" style="edgeStyle=orthogonalEdgeStyle;rounded=0;orthogonalLoop=1;jettySize=auto;html=1;" edge="1" parent="1" source="mw35fI-ThrpKBd6MLWW_-82" target="mw35fI-ThrpKBd6MLWW_-10">
          <mxGeometry relative="1" as="geometry" />
        </mxCell>
        <mxCell id="mw35fI-ThrpKBd6MLWW_-82" value="Anpassen?" style="rhombus;whiteSpace=wrap;html=1;fillColor=#fa6800;strokeColor=#C73500;fontColor=#000000;" vertex="1" parent="1">
          <mxGeometry x="800" y="380" width="110" height="80" as="geometry" />
        </mxCell>
        <mxCell id="mw35fI-ThrpKBd6MLWW_-100" style="edgeStyle=orthogonalEdgeStyle;rounded=0;orthogonalLoop=1;jettySize=auto;html=1;" edge="1" parent="1" source="mw35fI-ThrpKBd6MLWW_-98" target="mw35fI-ThrpKBd6MLWW_-2">
          <mxGeometry relative="1" as="geometry" />
        </mxCell>
        <mxCell id="mw35fI-ThrpKBd6MLWW_-98" value="PC Konfigurieren" style="whiteSpace=wrap;html=1;fillStyle=solid;fillColor=#000000;strokeColor=#FFFFFF;fontColor=#FFFFFF;" vertex="1" parent="1">
          <mxGeometry x="80" y="200" width="120" height="30" as="geometry" />
        </mxCell>
        <mxCell id="mw35fI-ThrpKBd6MLWW_-105" style="edgeStyle=orthogonalEdgeStyle;rounded=0;orthogonalLoop=1;jettySize=auto;html=1;" edge="1" parent="1" source="mw35fI-ThrpKBd6MLWW_-99" target="mw35fI-ThrpKBd6MLWW_-101">
          <mxGeometry relative="1" as="geometry" />
        </mxCell>
        <mxCell id="mw35fI-ThrpKBd6MLWW_-99" value="Konfiguration Ã¶ffnen" style="whiteSpace=wrap;html=1;fillStyle=solid;fillColor=#000000;strokeColor=#FFFFFF;fontColor=#FFFFFF;" vertex="1" parent="1">
          <mxGeometry x="80" y="230" width="120" height="30" as="geometry" />
        </mxCell>
        <mxCell id="mw35fI-ThrpKBd6MLWW_-101" value="Konfigrationen" style="rounded=1;whiteSpace=wrap;html=1;fillColor=#d80073;fontColor=#ffffff;strokeColor=#A50040;" vertex="1" parent="1">
          <mxGeometry x="80" y="390" width="120" height="60" as="geometry" />
        </mxCell>
        <mxCell id="mw35fI-ThrpKBd6MLWW_-109" style="rounded=0;orthogonalLoop=1;jettySize=auto;html=1;entryX=0.5;entryY=0;entryDx=0;entryDy=0;exitX=1;exitY=0.75;exitDx=0;exitDy=0;" edge="1" parent="1" source="mw35fI-ThrpKBd6MLWW_-106" target="mw35fI-ThrpKBd6MLWW_-108">
          <mxGeometry relative="1" as="geometry" />
        </mxCell>
        <mxCell id="mw35fI-ThrpKBd6MLWW_-106" value="Mein PC 1 &quot;Gaming&quot;" style="whiteSpace=wrap;html=1;fillStyle=solid;fillColor=#000000;strokeColor=#FFFFFF;fontColor=#FFFFFF;" vertex="1" parent="1">
          <mxGeometry x="80" y="450" width="120" height="30" as="geometry" />
        </mxCell>
        <mxCell id="mw35fI-ThrpKBd6MLWW_-107" value="Mein PC 2 &quot;Office&quot;" style="whiteSpace=wrap;html=1;fillStyle=solid;fillColor=#000000;strokeColor=#FFFFFF;fontColor=#FFFFFF;" vertex="1" parent="1">
          <mxGeometry x="80" y="480" width="120" height="30" as="geometry" />
        </mxCell>
        <mxCell id="mw35fI-ThrpKBd6MLWW_-108" value="Mein PC 1" style="rounded=1;whiteSpace=wrap;html=1;fillColor=#d80073;fontColor=#ffffff;strokeColor=#A50040;" vertex="1" parent="1">
          <mxGeometry x="340" y="600" width="120" height="60" as="geometry" />
        </mxCell>
        <mxCell id="mw35fI-ThrpKBd6MLWW_-120" style="edgeStyle=orthogonalEdgeStyle;rounded=0;orthogonalLoop=1;jettySize=auto;html=1;" edge="1" parent="1" source="mw35fI-ThrpKBd6MLWW_-111">
          <mxGeometry relative="1" as="geometry">
            <mxPoint x="760" y="420" as="targetPoint" />
            <Array as="points">
              <mxPoint x="790" y="675" />
              <mxPoint x="790" y="420" />
            </Array>
          </mxGeometry>
        </mxCell>
        <mxCell id="mw35fI-ThrpKBd6MLWW_-111" value="Anpassen" style="whiteSpace=wrap;html=1;fillStyle=solid;fillColor=#000000;strokeColor=#FFFFFF;fontColor=#FFFFFF;" vertex="1" parent="1">
          <mxGeometry x="340" y="660" width="120" height="30" as="geometry" />
        </mxCell>
        <mxCell id="mw35fI-ThrpKBd6MLWW_-122" style="edgeStyle=orthogonalEdgeStyle;rounded=0;orthogonalLoop=1;jettySize=auto;html=1;entryX=0.5;entryY=0;entryDx=0;entryDy=0;" edge="1" parent="1" source="mw35fI-ThrpKBd6MLWW_-112" target="mw35fI-ThrpKBd6MLWW_-65">
          <mxGeometry relative="1" as="geometry" />
        </mxCell>
        <mxCell id="mw35fI-ThrpKBd6MLWW_-112" value="Bauen" style="whiteSpace=wrap;html=1;fillStyle=solid;fillColor=#000000;strokeColor=#FFFFFF;fontColor=#FFFFFF;" vertex="1" parent="1">
          <mxGeometry x="340" y="720" width="120" height="30" as="geometry" />
        </mxCell>
        <mxCell id="mw35fI-ThrpKBd6MLWW_-121" style="edgeStyle=orthogonalEdgeStyle;rounded=0;orthogonalLoop=1;jettySize=auto;html=1;" edge="1" parent="1" source="mw35fI-ThrpKBd6MLWW_-113" target="mw35fI-ThrpKBd6MLWW_-8">
          <mxGeometry relative="1" as="geometry">
            <Array as="points">
              <mxPoint x="240" y="705" />
              <mxPoint x="240" y="590" />
            </Array>
          </mxGeometry>
        </mxCell>
        <mxCell id="mw35fI-ThrpKBd6MLWW_-113" value="Teile kaufen" style="whiteSpace=wrap;html=1;fillStyle=solid;fillColor=#000000;strokeColor=#FFFFFF;fontColor=#FFFFFF;" vertex="1" parent="1">
          <mxGeometry x="340" y="690" width="120" height="30" as="geometry" />
        </mxCell>
        <mxCell id="mw35fI-ThrpKBd6MLWW_-119" style="edgeStyle=orthogonalEdgeStyle;rounded=0;orthogonalLoop=1;jettySize=auto;html=1;entryX=0.442;entryY=0;entryDx=0;entryDy=0;entryPerimeter=0;" edge="1" parent="1" source="mw35fI-ThrpKBd6MLWW_-82" target="mw35fI-ThrpKBd6MLWW_-9">
          <mxGeometry relative="1" as="geometry">
            <Array as="points">
              <mxPoint x="855" y="350" />
              <mxPoint x="473" y="350" />
            </Array>
          </mxGeometry>
        </mxCell>
        <mxCell id="mw35fI-ThrpKBd6MLWW_-129" style="edgeStyle=orthogonalEdgeStyle;rounded=0;orthogonalLoop=1;jettySize=auto;html=1;entryX=0.5;entryY=0;entryDx=0;entryDy=0;" edge="1" parent="1" source="mw35fI-ThrpKBd6MLWW_-124" target="mw35fI-ThrpKBd6MLWW_-65">
          <mxGeometry relative="1" as="geometry">
            <Array as="points">
              <mxPoint x="590" y="525" />
            </Array>
          </mxGeometry>
        </mxCell>
        <mxCell id="mw35fI-ThrpKBd6MLWW_-124" value="Bauen" style="whiteSpace=wrap;html=1;fillStyle=solid;fillColor=#000000;strokeColor=#FFFFFF;fontColor=#FFFFFF;" vertex="1" parent="1">
          <mxGeometry x="420" y="510" width="120" height="30" as="geometry" />
        </mxCell>
        <mxCell id="mw35fI-ThrpKBd6MLWW_-127" style="edgeStyle=orthogonalEdgeStyle;rounded=0;orthogonalLoop=1;jettySize=auto;html=1;" edge="1" parent="1" source="mw35fI-ThrpKBd6MLWW_-125">
          <mxGeometry relative="1" as="geometry">
            <mxPoint x="190" y="590" as="targetPoint" />
            <Array as="points">
              <mxPoint x="310" y="495" />
              <mxPoint x="310" y="590" />
            </Array>
          </mxGeometry>
        </mxCell>
        <mxCell id="mw35fI-ThrpKBd6MLWW_-125" value="Kaufen" style="whiteSpace=wrap;html=1;fillStyle=solid;fillColor=#000000;strokeColor=#FFFFFF;fontColor=#FFFFFF;" vertex="1" parent="1">
          <mxGeometry x="420" y="480" width="120" height="30" as="geometry" />
        </mxCell>
      </root>
    </mxGraphModel>
  </diagram>
</mxfile>
